HIERARCHY
ROOT pelvis
{
  OFFSET 0 100 0
  CHANNELS 6 Xposition Yposition Zposition Zrotation Xrotation Yrotation
  JOINT pelvis_right_femur
  {
    OFFSET -10.78128 -3.44521 -0.5502486
    CHANNELS 3 Zrotation Xrotation Yrotation
    JOINT right_femur_tibia
    {
      OFFSET -0.8047443 -44.0398 -0.1307829
      CHANNELS 3 Zrotation Xrotation Yrotation
      JOINT right_tibia_foot
      {
        OFFSET 3.006224 -47.83518 -5
        CHANNELS 3 Zrotation Xrotation Yrotation
        End Site
        {
          OFFSET 0 -5 15
        }
      }
    }
  }
  JOINT pelvis_left_femur
  {
    OFFSET 10.78128 -3.44521 -0.5502486
    CHANNELS 3 Zrotation Xrotation Yrotation
    JOINT left_femur_tibia
    {
      OFFSET 0.8047443 -44.0398 -0.1307829
      CHANNELS 3 Zrotation Xrotation Yrotation
      JOINT left_tibia_foot
      {
        OFFSET -4.370144 -48.10324 -4.275266
        CHANNELS 3 Zrotation Xrotation Yrotation
        End Site
        {
          OFFSET 0 -5 15
        }
      }
    }
  }
  JOINT pelvis_spine1
  {
    OFFSET 0 6.468898 -3.129235
    CHANNELS 3 Zrotation Xrotation Yrotation
    JOINT spine1
    {
      OFFSET 0 23.15396 4.99043
      CHANNELS 3 Zrotation Xrotation Yrotation
      JOINT spine2
      {
        OFFSET 0 20.79997 -5.064912
        CHANNELS 3 Zrotation Xrotation Yrotation
        JOINT neck
        {
          OFFSET 0 14.38658 9.616178
          CHANNELS 3 Zrotation Xrotation Yrotation
          End Site
          {
            OFFSET 0 20 0
          }
        }
      }
      JOINT right_manubrium
      {
        OFFSET -5.722621 16.35077 3.967754
        CHANNELS 3 Zrotation Xrotation Yrotation
        JOINT right_clavicle
        {
          OFFSET -13.16364 1.694482 -4.693211
          CHANNELS 3 Zrotation Xrotation Yrotation
          JOINT right_humerus
          {
            OFFSET -28.5034 -0.3100689 -2.792744
            CHANNELS 3 Zrotation Xrotation Yrotation
            JOINT right_radius
            {
              OFFSET -25.15693 0.02248979 -1.271978
              CHANNELS 3 Zrotation Xrotation Yrotation
              End Site
              {
                OFFSET -15 0 0
              }
            }
          }
        }
      }
      JOINT left_manubrium
      {
        OFFSET 5.722621 16.35077 3.967754
        CHANNELS 3 Zrotation Xrotation Yrotation
        JOINT left_clavicle
        {
          OFFSET 13.16364 1.694482 -4.693211
          CHANNELS 3 Zrotation Xrotation Yrotation
          JOINT left_humerus
          {
            OFFSET 29.39168 -1.063119 -2.237045
            CHANNELS 3 Zrotation Xrotation Yrotation
            JOINT left_radius
            {
              OFFSET 24.59957 -0.9528479 0.9047498
              CHANNELS 3 Zrotation Xrotation Yrotation
              End Site
              {
                OFFSET 15 -0 -0
              }
            }
          }
        }
      }
    }
  }
}
MOTION
Frames: 13
Frame Time: 0.0416666666667
-685.0856 98.52298 2602.13 -3.241407 -7.066125 -39.53128 -1.677375 19.05857 0.4451533 -0 43.02855 -0 -9.526411 6.115245 2.496034 -5.148126 -15.15838 -11.5268 -0 18.14659 -0 -0.876779 -6.783121 21.33641 -1.406135 -0.1236115 6.307541 -1.342462 10.70974 -4.939858 2.249591 21.47091 8.24255 2.074203 -15.23643 10.57416 3.135924 -17.12328 10.46752 85.86388 27.96266 -15.5373 -0 0 17.48607 -30.98902 22.98478 13.83625 5.4516 -18.50809 -4.663838 -86.7399 22.51215 15.69098 0 0 -20.41842 -1.388458 7.699676 15.99792
-688.416 100.0819 2607.884 -3.625755 -7.627275 -38.97713 -1.583288 13.58556 0.8598836 -0 53.42341 -0 -10.47004 12.44287 2.213147 -5.749384 -10.76402 -11.32033 -0 19.92225 -0 0.9855231 -7.485361 20.86894 -1.356416 -0.08681664 6.070365 -1.346166 10.50938 -4.990242 2.315906 21.55809 8.138789 1.963303 -15.07978 10.6398 2.871504 -16.76962 10.2846 86.33945 27.34494 -15.92056 -0 0 17.22815 -30.28424 22.62621 13.34655 5.600069 -18.51479 -4.756006 -86.25431 22.61425 14.69656 0 0 -20.96046 -1.241334 7.677141 15.65311
-691.4108 101.8228 2613.11 -4.183443 -7.741317 -38.17995 -0.7333158 6.086109 1.043551 -0 59.17467 -0 -10.53033 14.82335 1.024112 -5.666938 -5.833468 -10.76151 -0 19.59816 -0 2.009558 -8.943769 20.07201 -1.338096 -0.09512466 5.539301 -1.251286 10.29475 -5.283926 2.348887 21.65681 8.053614 1.865574 -14.96497 10.70049 2.526639 -16.11194 10.01771 87.45533 26.94847 -17.12656 -0 0 16.23269 -29.32369 22.27113 12.63322 5.911508 -18.90166 -4.891177 -85.17248 22.62338 12.63138 0 0 -22.30288 -0.7311587 7.764029 14.82293
-694.1133 103.2171 2617.851 -4.485484 -7.358586 -37.29549 0.1457148 -1.949387 0.7521457 -0 57.67957 -0 -9.858959 13.45586 -0.5053781 -5.310465 -0.9547229 -10.34954 -0 17.27657 -0 1.944059 -11.13449 18.96315 -1.380832 -0.2061376 4.6313 -1.055792 10.05531 -5.902109 2.328417 21.74531 8.030048 1.811849 -14.92326 10.77222 2.060189 -15.08296 9.621668 89.44873 26.90127 -19.44553 -0 0 14.28017 -28.14677 21.94752 11.68045 6.511369 -19.85513 -5.063849 -83.26048 22.36613 9.057473 0 0 -24.89646 0.3869721 8.014607 13.20985
-696.6131 103.9875 2622.192 -4.397859 -6.599736 -36.4473 0.7604824 -9.597827 0.2299543 -0 51.47231 -0 -9.104705 10.25273 -1.778615 -5.013682 3.660077 -10.37188 -0 14.2428 -0 1.333737 -13.65862 17.74991 -1.521495 -0.4867434 3.422274 -0.8078631 9.778985 -6.81422 2.240892 21.77887 8.086915 1.844745 -14.96321 10.82793 1.469008 -13.80505 9.095932 92.24173 27.26222 -22.75108 -0 0 11.56572 -26.95911 21.63137 10.62602 7.485975 -21.40721 -5.22771 -80.63008 21.58792 4.079964 0 0 -28.86308 2.232289 8.436572 10.68097
-698.9348 104.1279 2626.137 -3.97644 -5.495915 -35.72842 1.28916 -16.48609 -0.06391707 -0 43.87821 -0 -8.602741 6.379175 -2.610505 -4.863378 7.856396 -11.05674 -0 11.38988 -0 0.6604958 -16.23987 16.80983 -1.75723 -0.9735582 2.162871 -0.5980808 9.499324 -7.874965 2.074577 21.69286 8.223945 2.015515 -15.04657 10.79297 0.8207101 -12.58082 8.50918 95.42172 28.02609 -26.52722 -0 0 8.701745 -26.12619 21.33254 9.743946 8.831502 -23.40773 -5.337659 -77.81226 20.08702 -1.481206 0 0 -33.83224 4.675396 8.944468 7.415099
-701.0388 103.7679 2629.623 -3.223161 -3.978366 -35.20082 2.011996 -22.28309 0.3375139 -0 36.6818 -0 -8.27605 2.039862 -3.070402 -4.846702 11.25606 -12.57186 -0 9.017326 -0 0.2828642 -18.76651 16.57842 -1.998072 -1.627214 1.184727 -0.4890712 9.329863 -8.913316 1.815281 21.42112 8.399008 2.361245 -15.0735 10.52575 0.2682726 -11.73658 7.999965 98.39088 29.10265 -30.15185 -0 0 6.39368 -25.94323 21.13723 9.275444 10.41367 -25.61572 -5.412828 -75.51506 17.92357 -6.372979 0 0 -39.02185 7.28085 9.373653 3.976958
-702.8651 103.1079 2632.595 -2.145655 -2.060864 -34.89315 3.161763 -26.47725 1.858266 -0 31.10256 -0 -7.874309 -2.536786 -3.296184 -4.962704 13.26124 -14.8647 -0 7.293238 -0 0.6356318 -21.00528 17.50041 -2.091574 -2.31272 0.7293919 -0.4199315 9.396422 -9.834126 1.454289 20.93203 8.515585 2.86975 -14.92638 9.846098 0.0556668 -11.39798 7.755963 100.5295 30.2979 -33.14732 -0 0 4.981688 -26.36443 21.17047 9.290486 11.9647 -27.80449 -5.51606 -74.24386 15.51149 -9.486148 0 0 -43.47446 9.380828 9.625768 1.25228
-704.4218 102.3362 2635.132 -0.9399496 -0.04134639 -34.77438 4.627728 -28.96141 4.168279 -0 27.5591 -0 -7.347729 -6.265732 -3.290201 -5.211636 13.64776 -17.28431 -0 6.316875 -0 1.929968 -22.57476 19.41311 -1.95587 -2.850082 0.7468559 -0.1876419 9.66045 -10.65929 1.004981 20.26016 8.487111 3.471232 -14.60916 8.67476 0.4403458 -11.35103 7.933489 101.3965 31.41317 -35.28123 -0 0 4.197032 -26.94801 21.4487 9.731649 13.19973 -29.78617 -5.623933 -74.05112 13.44273 -10.47347 0 0 -46.43225 10.39543 9.815423 0.05643237
-705.8792 101.5136 2637.535 0.02476686 1.545651 -34.72982 5.802045 -30.70412 5.690902 -0 24.68103 -0 -7.059965 -7.4805 -2.869211 -5.487944 13.31843 -18.55874 -0 6.105678 -0 3.591562 -23.29414 20.87661 -1.683747 -3.117214 0.8944943 0.4029769 9.832378 -11.43727 0.5068897 19.50981 8.338458 4.076844 -14.35286 7.174236 1.496126 -11.21426 8.532397 100.8803 32.39447 -36.45712 -0 0 3.532604 -27.16132 21.72678 10.55447 13.97214 -31.33172 -5.584935 -74.634 12.19244 -9.815744 0 0 -47.59332 10.16431 10.1814 0.6404198
-707.5026 100.5989 2640.185 0.5584037 2.386299 -34.63163 6.241076 -32.54867 5.376331 -0 21.02731 -0 -7.224075 -5.917992 -2.093088 -5.645394 13.47747 -18.01235 -0 6.751202 -0 4.810845 -23.29039 20.63549 -1.447323 -3.095803 0.8358797 1.358429 9.591624 -12.11777 0.01720404 18.81964 8.207878 4.599998 -14.49631 5.717232 3.000591 -10.79735 9.367831 99.16958 33.21199 -36.59354 -0 0 2.81148 -26.71196 21.63721 11.68225 14.24704 -32.14402 -5.288441 -75.63964 12.02078 -8.196448 0 0 -47.03146 8.879887 10.79094 2.703415
-709.462 99.60692 2643.305 0.7690804 2.686723 -34.43262 6.213528 -34.17715 4.018084 -0 17.16034 -0 -7.606749 -3.038193 -1.261645 -5.69484 14.20047 -16.36747 -0 8.303528 -0 5.529416 -22.68665 19.22481 -1.338529 -2.849532 0.4956003 2.475328 8.922754 -12.58294 -0.3866566 18.30719 8.223526 4.94837 -15.21384 4.71014 4.529646 -10.23072 10.17903 96.79777 33.70262 -35.82196 -0 0 2.178143 -25.6305 21.05344 12.85078 14.01435 -32.04849 -4.800799 -76.809 12.90435 -6.120379 0 0 -45.15673 6.954389 11.39208 5.598693
-711.8104 98.62846 2646.973 0.7849144 2.783795 -34.14381 6.185759 -35.27777 2.56023 -0 13.94241 -0 -8.080826 0.1245727 -0.4578508 -5.677757 15.06558 -14.43587 -0 10.75618 -0 6.001546 -21.53106 17.45364 -1.333072 -2.498487 0.04647612 3.464388 8.165555 -12.78665 -0.6322337 18.02843 8.366311 5.070786 -16.31308 4.328662 5.676987 -9.782948 10.77394 94.60984 33.77504 -34.66705 -0 0 1.750301 -24.24439 20.21717 13.69084 13.36603 -31.25261 -4.319149 -77.91943 14.38141 -4.055074 0 0 -42.76395 5.02671 11.66886 8.396358
